<svg width="46" height="46" viewBox="0 0 46 46" fill="none" xmlns="http://www.w3.org/2000/svg">
<path d="M22.537 0C26.9944 0 31.3517 1.32177 35.0579 3.79817C38.7641 6.27457 41.6527 9.79436 43.3585 13.9125C45.0642 18.0306 45.5106 22.562 44.641 26.9338C43.7714 31.3055 41.6249 35.3212 38.4731 38.4731C35.3212 41.6249 31.3055 43.7714 26.9338 44.641C22.562 45.5106 18.0306 45.0642 13.9125 43.3585C9.79436 41.6527 6.27457 38.7641 3.79817 35.0579C1.32177 31.3517 0 26.9944 0 22.537C0.00688129 16.5619 2.38352 10.8336 6.60853 6.60853C10.8336 2.38352 16.5619 0.00688129 22.537 0ZM22.537 41.735C26.3344 41.735 30.0465 40.6089 33.2039 38.4992C36.3614 36.3895 38.8223 33.3909 40.2755 29.8825C41.7287 26.3742 42.1089 22.5137 41.3681 18.7893C40.6272 15.0648 38.7986 11.6437 36.1134 8.95855C33.4283 6.27338 30.0072 4.44476 26.2827 3.70392C22.5583 2.96309 18.6978 3.34331 15.1895 4.79651C11.6811 6.24972 8.68251 8.71063 6.57278 11.8681C4.46306 15.0255 3.337 18.7376 3.337 22.535C3.34229 27.6255 5.36685 32.5061 8.9664 36.1056C12.5659 39.7052 17.4465 41.7297 22.537 41.735Z" fill="#092A5E"/>
<path d="M22.537 34.64C22.0944 34.64 21.6698 34.4642 21.3568 34.1512C21.0438 33.8382 20.868 33.4136 20.868 32.971V18.363C20.868 17.9204 21.0438 17.4958 21.3568 17.1828C21.6698 16.8698 22.0944 16.694 22.537 16.694C22.7563 16.6939 22.9734 16.7369 23.176 16.8208C23.3786 16.9046 23.5627 17.0275 23.7178 17.1825C23.8729 17.3375 23.9959 17.5215 24.0799 17.7241C24.1638 17.9266 24.207 18.1437 24.207 18.363V32.971C24.207 33.1903 24.1638 33.4074 24.0799 33.6099C23.9959 33.8125 23.8729 33.9965 23.7178 34.1515C23.5627 34.3065 23.3786 34.4294 23.176 34.5132C22.9734 34.5971 22.7563 34.6401 22.537 34.64Z" fill="#092A5E"/>
<path d="M22.537 14.189C22.0944 14.189 21.6698 14.0132 21.3568 13.7002C21.0438 13.3872 20.868 12.9626 20.868 12.52C20.861 12.055 21.0285 11.6042 21.3375 11.2566C21.6464 10.909 22.0744 10.6897 22.537 10.642C22.7445 10.6183 22.9547 10.6382 23.1541 10.7004C23.3535 10.7626 23.5377 10.8658 23.6949 11.0034C23.8522 11.1409 23.9789 11.3097 24.0671 11.4991C24.1553 11.6885 24.2029 11.8942 24.207 12.103V12.52C24.207 12.7393 24.1638 12.9564 24.0799 13.1589C23.9959 13.3615 23.8729 13.5455 23.7178 13.7005C23.5627 13.8555 23.3786 13.9784 23.176 14.0622C22.9734 14.1461 22.7563 14.1891 22.537 14.189Z" fill="#092A5E"/>
</svg>
